<?xml version="1.0" standalone="no"?>
<!DOCTYPE svg PUBLIC "-//W3C//DTD SVG 20010904//EN"
 "http://www.w3.org/TR/2001/REC-SVG-20010904/DTD/svg10.dtd">
<svg version="1.0" xmlns="http://www.w3.org/2000/svg"
 width="802.000000pt" height="486.000000pt" viewBox="0 0 802.000000 486.000000"
 preserveAspectRatio="xMidYMid meet">
<metadata>
Created by potrace 1.16, written by Peter Selinger 2001-2019
</metadata>
<g transform="translate(0.000000,486.000000) scale(0.100000,-0.100000)"
fill="#000000" stroke="none">
<path d="M2235 4853 c-514 -41 -946 -210 -1330 -520 -128 -103 -339 -320 -435
-448 -236 -314 -384 -667 -445 -1060 -22 -143 -31 -503 -16 -656 46 -471 191
-858 455 -1209 91 -123 294 -330 421 -433 335 -270 704 -429 1156 -498 177
-27 542 -32 674 -8 l80 14 3 813 c2 889 5 847 -56 890 -43 31 -90 36 -163 17
-83 -23 -234 -23 -319 -1 -348 88 -548 444 -454 811 56 218 263 421 489 480
76 19 240 19 324 0 81 -19 182 -72 248 -130 67 -59 143 -173 182 -274 62 -161
61 -139 61 -1397 l0 -1144 880 0 880 0 0 1228 c0 729 -4 1276 -10 1347 -52
627 -253 1114 -614 1493 -390 409 -889 628 -1551 682 -111 9 -367 11 -460 3z"/>
<path d="M5791 4628 c-37 -79 -215 -441 -395 -806 -179 -365 -326 -671 -326
-679 0 -9 183 -526 407 -1150 l408 -1133 947 0 948 0 -9 22 c-5 13 -218 509
-473 1103 l-464 1080 375 740 374 740 1 65 c1 72 -15 104 -69 137 -28 17 -75
18 -842 21 l-813 2 -69 -142z"/>
<path d="M5980 602 c0 -4 40 -118 88 -252 l88 -245 873 -3 c789 -2 876 -1 907
14 49 23 77 67 82 129 4 46 -3 68 -63 208 l-67 157 -954 0 c-525 0 -954 -3
-954 -8z"/>
</g>
</svg>
